<svg xmlns="http://www.w3.org/2000/svg" width="1400" height="1010" viewBox="0 0 1400 1010" version="1.1">
	<path d="M 629 1.590 C 627.075 1.811, 621.225 2.467, 616 3.048 C 507.005 15.176, 410.073 82.736, 361.071 180.730 C 349.385 204.101, 342.737 221.655, 336.544 245.500 C 330.107 270.281, 327.156 291.339, 326.312 318.500 C 323.212 418.308, 365.787 513.765, 442 577.879 C 490.842 618.968, 547.564 643.969, 611.500 652.590 C 627.360 654.729, 663.777 655.527, 680.044 654.093 C 748.327 648.072, 810.552 622.601, 862.668 579.338 C 875.565 568.632, 898.537 545.161, 908.901 532.102 C 948.250 482.522, 972.047 424.053, 978.540 361 C 980.578 341.210, 980.085 303.176, 977.558 285.246 C 968.952 224.193, 946.326 171.274, 908.188 123.004 C 898.515 110.761, 870.351 82.663, 857.513 72.447 C 810.382 34.942, 755.754 11.802, 694.500 3.398 C 684.094 1.970, 637.028 0.671, 629 1.590 M 626 168.970 C 565.810 179.984, 518.512 220.983, 499.440 278.678 C 493.892 295.462, 492.573 304.931, 492.573 328 C 492.573 351.064, 493.888 360.513, 499.437 377.322 C 516.862 430.113, 559.426 470.336, 612.329 484.004 C 627.481 487.919, 636.877 489.058, 654 489.056 C 731.876 489.043, 798.061 433.066, 812.086 355.350 C 816.346 331.742, 814.410 303.020, 806.966 279.389 C 802.779 266.095, 792.528 245.611, 784.261 234.018 C 775.695 222.004, 759.148 205.474, 746.945 196.739 C 729.487 184.242, 705.421 173.871, 683.500 169.400 C 670.687 166.787, 639.217 166.551, 626 168.970 M 1368.994 802.934 C 1354.358 807.386, 1347.072 823.024, 1353.351 836.507 C 1362.849 856.902, 1392.318 854.915, 1398.555 833.459 C 1400.391 827.142, 1399.872 821.887, 1396.754 815.221 C 1392.251 805.595, 1379.214 799.825, 1368.994 802.934 M 1365.976 808.250 C 1354.041 814.288, 1350.787 829.220, 1359.185 839.408 C 1371.783 854.692, 1395.960 845.371, 1395.994 825.218 C 1396.019 810.773, 1379.475 801.421, 1365.976 808.250 M 1244 812.691 C 1234.225 814.327, 1224.002 819.318, 1216.637 826.049 C 1202.475 838.992, 1196.656 865.252, 1202.506 889.824 C 1204.871 899.761, 1208.756 906.899, 1215.428 913.572 C 1222.962 921.105, 1230.515 924.789, 1242.668 926.858 C 1250.488 928.189, 1253.463 928.238, 1262.888 927.190 C 1273.044 926.061, 1292.647 921.714, 1299.250 919.127 L 1302 918.050 1302 901.097 L 1302 884.145 1304.635 882.073 C 1306.268 880.788, 1308.739 880, 1311.135 880 C 1314.591 880, 1315 879.735, 1315 877.500 L 1315 875 1289.500 875 L 1264 875 1264 877.500 C 1264 879.886, 1264.270 880, 1269.944 880 C 1274.785 880, 1276.409 880.448, 1278.694 882.412 C 1281.345 884.691, 1281.519 885.351, 1281.844 894.334 C 1282.480 911.913, 1278.185 919.574, 1266.315 922.038 C 1258.999 923.557, 1249.375 922.701, 1243.224 919.984 C 1229.033 913.716, 1222.984 898.841, 1223.017 870.292 C 1223.050 842.247, 1228.978 827.761, 1243.500 820.236 C 1250.113 816.810, 1262.964 815.975, 1271.390 818.425 C 1280.712 821.135, 1288.432 829.873, 1290.451 840 C 1291.808 846.802, 1291.952 847, 1295.567 847 L 1299 847 1299 832.610 L 1299 818.219 1291.250 816.168 C 1286.987 815.040, 1280.830 813.640, 1277.566 813.058 C 1271.917 812.051, 1249.303 811.803, 1244 812.691 M 515.750 813.750 L 470 814.020 470 816.870 C 470 819.596, 470.245 819.745, 475.603 820.298 C 485.698 821.340, 485 817.640, 485 870.132 L 485 915.954 482.443 917.629 C 481.037 918.551, 477.638 919.521, 474.890 919.785 C 469.984 920.256, 469.899 920.321, 470.197 923.382 L 470.500 926.500 517 926.500 L 563.500 926.500 563.773 908.250 L 564.045 890 560.650 890 C 557.426 890, 557.223 890.213, 556.600 894.250 C 555.322 902.526, 552.805 908.248, 548.584 912.469 C 542.767 918.286, 537.830 919.500, 520 919.500 L 505.500 919.500 505.232 895.750 L 504.964 872 512.232 872.022 C 524.920 872.060, 530.216 876.004, 531.653 886.483 C 532.223 890.643, 532.498 891, 535.136 891 L 538 891 538 868 L 538 845 535 845 C 532.384 845, 532 845.357, 532 847.788 C 532 849.322, 530.987 852.584, 529.750 855.038 C 526.578 861.328, 520.825 864.161, 512 863.781 L 505.500 863.500 505.500 842 L 505.500 820.500 521 820.569 C 530.481 820.611, 537.932 821.119, 540.188 821.876 C 547.827 824.440, 551.657 829.521, 554.041 840.250 C 555.284 845.848, 555.407 846, 558.659 846 L 562 846 562 829.500 C 562 820.425, 561.888 813.108, 561.750 813.240 C 561.612 813.371, 540.913 813.601, 515.750 813.750 M 621 816.261 L 621 819.720 626.603 820.298 C 636.698 821.340, 636 817.640, 636 870.132 L 636 915.954 633.626 917.509 C 632.321 918.364, 628.922 919.340, 626.074 919.678 C 620.993 920.279, 620.901 920.350, 621.197 923.396 L 621.500 926.500 646.750 926.767 L 672 927.034 672 923.517 C 672 920.158, 671.841 920, 668.468 920 C 663.834 920, 658.439 917.689, 657.061 915.113 C 656.333 913.753, 656.052 905.849, 656.230 891.778 L 656.500 870.500 661.434 870.188 C 668.234 869.757, 670.419 870.481, 675.103 874.712 C 680.313 879.419, 683.309 885.404, 688.593 901.660 C 696.842 927.039, 709.110 948.654, 726.247 968 C 742.240 986.056, 760.320 997.092, 784.510 1003.566 C 819.617 1012.961, 857.150 1010.175, 886.601 995.989 C 910.236 984.605, 931.713 964.060, 944.411 940.690 C 946.858 936.185, 949.166 931.263, 949.539 929.750 C 950.182 927.142, 950.035 927, 946.692 927 C 943.408 927, 942.772 927.566, 937.409 935.250 C 929.807 946.145, 915.546 960.187, 905 967.163 C 881.143 982.942, 858.106 990.078, 831.013 990.078 C 814.997 990.079, 803.540 988.259, 789.041 983.412 C 771.441 977.528, 761.948 971.941, 750.958 961 C 738.437 948.534, 729.162 934.407, 714.976 906.200 C 702.067 880.532, 697.478 874.466, 687.553 869.954 L 681.605 867.250 686.817 866.133 C 694.366 864.514, 698.254 862.669, 702.831 858.534 C 708.178 853.703, 710.528 847.482, 710.402 838.488 C 710.226 825.832, 705.042 818.588, 693.806 815.293 C 689.635 814.069, 681.280 813.636, 654.750 813.269 L 621 812.802 621 816.261 M 771.667 813.667 C 771.300 814.033, 771 815.545, 771 817.027 C 771 819.562, 771.329 819.754, 776.603 820.298 C 786.698 821.340, 786 817.640, 786 870.132 L 786 915.954 783.443 917.629 C 782.037 918.551, 778.638 919.521, 775.890 919.785 C 771.061 920.249, 770.903 920.363, 771.197 923.174 L 771.500 926.083 796.750 926.292 L 822 926.500 822 923.250 C 822 920.121, 821.850 920, 817.968 920 C 815.750 920, 812.402 919.359, 810.527 918.576 C 806.062 916.710, 805.844 915.296, 806.207 890.500 L 806.500 870.500 812.274 870.199 C 819.723 869.812, 824.740 872.507, 829.471 879.439 C 833.122 884.787, 834.918 889.257, 839.979 905.586 C 843.255 916.155, 846.854 921.839, 851.934 924.466 C 853.790 925.426, 858.565 925.949, 866.594 926.071 C 877.935 926.244, 878.515 926.154, 878.812 924.183 C 879.065 922.508, 878.433 921.984, 875.491 921.432 C 869.201 920.252, 866.318 916.848, 863.411 907.167 C 857.623 887.897, 848.448 874.597, 837.760 869.986 C 831.916 867.464, 831.813 867.590, 842.121 864.606 C 849.434 862.489, 856.218 856.598, 858.673 850.232 C 861.034 844.111, 861.061 833.957, 858.731 827.920 C 855.391 819.262, 849.653 815.771, 835.929 814.050 C 826.806 812.906, 772.750 812.584, 771.667 813.667 M 1 816.861 C 1 819.568, 1.282 819.754, 6.250 820.330 C 10.183 820.787, 12.064 821.588, 13.750 823.525 L 16 826.112 16 870.122 C 16 896.916, 15.617 914.847, 15.021 915.961 C 13.804 918.235, 8.922 920, 3.851 920 C 0.117 920, 0 920.106, 0 923.500 L 0 927 25.500 927 L 51 927 51 923.627 C 51 920.316, 50.910 920.246, 46.057 919.779 C 43.338 919.518, 39.963 918.551, 38.557 917.629 L 36 915.954 36 893.977 L 36 872 43.750 872.056 C 57.651 872.158, 62.037 875.364, 62.805 885.987 L 63.240 892 66.620 892 L 70 892 70 868.500 L 70 845 66.500 845 L 63 845 63 849.766 C 63 860.417, 57.358 865, 44.246 865 L 35.962 865 36.231 842.900 L 36.500 820.800 52 820.938 C 60.525 821.014, 69.129 821.511, 71.119 822.042 C 78.497 824.009, 82.635 829.421, 85.041 840.250 C 86.284 845.848, 86.407 846, 89.659 846 L 93 846 93 830 L 93 814 47 814 L 1 814 1 816.861 M 147 816.860 C 147 819.598, 147.240 819.745, 152.603 820.298 C 162.698 821.340, 162 817.640, 162 870.132 L 162 915.954 159.443 917.629 C 158.037 918.551, 154.638 919.521, 151.890 919.785 C 146.984 920.256, 146.899 920.321, 147.197 923.382 L 147.500 926.500 194.250 926.760 L 241 927.020 241 908.510 L 241 890 237.500 890 C 234.474 890, 234 890.325, 234 892.395 C 234 893.712, 233.053 897.874, 231.895 901.645 C 229.457 909.583, 224.071 915.644, 217.482 917.864 C 215.217 918.627, 206.924 919.429, 198.250 919.724 L 183 920.243 183 895.996 L 183 871.749 191.523 872.197 C 197.967 872.535, 200.711 873.131, 202.773 874.643 C 206.369 877.279, 208.997 882.600, 208.998 887.250 C 209 890.750, 209.200 891, 212 891 L 215 891 215 868 L 215 845 212 845 C 209.285 845, 208.998 845.309, 208.984 848.250 C 208.938 857.273, 200.526 864, 189.288 864 L 183 864 183 841.858 L 183 819.716 198.750 820.229 C 215.274 820.766, 220.103 821.869, 224.656 826.146 C 227.322 828.651, 230.544 836.017, 231.481 841.750 C 232.140 845.784, 232.349 846, 235.588 846 L 239 846 239 830 L 239 814 193 814 L 147 814 147 816.860 M 297 817 C 297 819.605, 297.362 820.001, 299.750 820.006 C 303.642 820.013, 309.784 821.852, 310.714 823.287 C 311.146 823.954, 311.725 842.725, 312 865 C 312.494 905.049, 312.527 905.559, 314.892 910.794 C 318.102 917.898, 323.733 922.540, 332.477 925.288 C 338.456 927.167, 341.804 927.496, 355 927.497 C 364.109 927.497, 372.816 926.965, 376.117 926.206 C 388.416 923.376, 397.590 914.803, 399.914 903.967 C 400.583 900.845, 401 884.889, 401 862.385 C 401 840.478, 401.392 825.137, 401.979 824.039 C 403.152 821.848, 408.033 820, 412.649 820 C 415.706 820, 416 819.736, 416 817 L 416 814 396.500 814 L 377 814 377 816.880 C 377 819.678, 377.167 819.772, 382.878 820.185 C 386.111 820.419, 389.936 821.383, 391.378 822.328 L 394 824.046 394 859.974 C 394 882.054, 393.581 897.854, 392.914 900.967 C 391.238 908.781, 386.567 914.911, 379.571 918.478 C 373.904 921.366, 373.084 921.500, 361.071 921.500 C 349.905 921.500, 348.024 921.246, 344.237 919.223 C 338.834 916.337, 334.448 910.318, 333.072 903.900 C 332.417 900.848, 332 884.326, 332 861.474 L 332 824.046 334.592 822.348 C 336.018 821.414, 339.618 820.447, 342.592 820.201 C 347.779 819.771, 348 819.635, 348 816.876 L 348 814 322.500 814 L 297 814 297 817 M 921 817 C 921 819.814, 921.239 820, 924.851 820 C 929.922 820, 934.804 821.765, 936.021 824.039 C 936.592 825.106, 937 837.366, 937 853.434 L 937 881 947 881 L 957 881 957.015 852.750 C 957.024 837.212, 957.370 823.966, 957.786 823.313 C 958.924 821.523, 963.649 820, 968.065 820 C 971.771 820, 972 819.825, 972 817 L 972 814 946.500 814 L 921 814 921 817 M 1030 816.870 C 1030 819.528, 1030.331 819.777, 1034.486 820.245 C 1036.953 820.524, 1040.103 821.492, 1041.486 822.399 L 1044 824.046 1044 869.868 C 1044 922.202, 1044.604 918.851, 1035.010 919.773 C 1030.082 920.247, 1030 920.310, 1030 923.627 L 1030 927 1049 927 L 1068 927 1068 923.639 L 1068 920.278 1061.860 919.721 C 1051.253 918.759, 1051.937 922.083, 1052.239 872.998 L 1052.500 830.574 1088.550 878.037 L 1124.600 925.500 1129.300 926.046 L 1134 926.592 1134 875.907 C 1134 817.312, 1133.374 821.048, 1143.334 820.222 C 1148.800 819.769, 1149 819.651, 1149 816.876 L 1149 814 1129.500 814 L 1110 814 1110 816.861 C 1110 819.638, 1110.180 819.739, 1116.140 820.279 C 1126.624 821.230, 1126.069 818.975, 1125.763 859.340 L 1125.500 894.099 1095.648 854.049 L 1065.797 814 1047.898 814 L 1030 814 1030 816.870 M 1368 826.500 C 1368 836.734, 1368.262 839, 1369.445 839 C 1370.460 839, 1370.981 837.585, 1371.195 834.250 C 1371.475 829.897, 1371.730 829.473, 1374.257 829.183 C 1376.687 828.903, 1377.247 829.409, 1378.980 833.454 C 1380.846 837.806, 1383.316 840.017, 1384.732 838.602 C 1385.087 838.247, 1384.382 835.909, 1383.167 833.406 L 1380.956 828.856 1383.178 827.057 C 1384.761 825.775, 1385.400 824.176, 1385.400 821.500 C 1385.400 815.981, 1382.492 814, 1374.389 814 L 1368 814 1368 826.500 M 1371.394 818.416 C 1371.095 819.194, 1370.997 821.107, 1371.175 822.666 C 1371.451 825.069, 1372.008 825.549, 1374.844 825.820 C 1378.298 826.151, 1382 823.873, 1382 821.416 C 1382 817.682, 1372.687 815.046, 1371.394 818.416 M 656 842 L 656 865 663.750 864.994 C 668.013 864.991, 673.200 864.517, 675.277 863.940 C 683.955 861.530, 689.005 853.295, 688.994 841.572 C 688.987 833.589, 687.537 828.681, 683.993 824.645 C 680.287 820.424, 675.403 819, 664.634 819 L 656 819 656 842 M 806 842 L 806 865 813.750 864.994 C 823.431 864.987, 828.117 863.714, 832.444 859.915 C 841.105 852.311, 841.362 830.906, 832.882 823.389 C 829.223 820.145, 824.520 819, 814.851 819 L 806 819 806 842" stroke="none" fill="black" fill-rule="evenodd"/>
</svg>